<?xml version="1.0" standalone="no"?>
<!DOCTYPE svg PUBLIC "-//W3C//DTD SVG 20010904//EN"
 "http://www.w3.org/TR/2001/REC-SVG-20010904/DTD/svg10.dtd">
<svg version="1.0" xmlns="http://www.w3.org/2000/svg"
 width="400.000000pt" height="112.000000pt" viewBox="0 0 400.000000 112.000000"
 preserveAspectRatio="xMidYMid meet">

<g transform="translate(0.000000,112.000000) scale(0.100000,-0.100000)"
fill="#000000" stroke="none">
<path d="M0 560 l0 -560 2000 0 2000 0 0 560 0 560 -2000 0 -2000 0 0 -560z
m3965 0 l0 -525 -1965 0 -1965 0 -3 515 c-1 283 0 521 3 528 3 10 402 12 1967
10 l1963 -3 0 -525z"/>
<path d="M147 972 c-27 -28 -27 -30 -27 -160 l0 -132 70 0 70 0 0 140 0 140
25 0 25 0 0 -175 0 -175 -95 0 -95 0 0 -245 0 -245 133 0 133 0 32 33 32 33 0
407 0 407 -138 0 -138 0 -27 -28z m161 -610 l2 -202 -25 0 -25 0 0 198 c0 109
3 202 7 206 4 4 14 5 23 4 13 -3 15 -32 18 -206z"/>
<path d="M529 978 c5 -13 43 -101 85 -196 l76 -173 0 -225 0 -224 -25 0 -25 0
0 190 c0 144 -4 199 -14 225 -15 34 -17 35 -70 35 l-56 0 0 -217 0 -217 27
-28 c26 -27 29 -28 138 -28 109 0 112 1 138 28 l27 28 0 235 0 234 -77 178
-77 177 -78 0 c-76 0 -77 0 -69 -22z"/>
<path d="M771 993 c0 -5 31 -75 67 -158 l67 -150 58 -3 57 -3 0 141 0 140 25
0 25 0 0 -400 0 -400 -25 0 -25 0 0 225 0 225 -70 0 -70 0 0 -217 0 -217 27
-28 c26 -27 29 -28 138 -28 109 0 112 1 138 28 l27 28 0 412 0 412 -143 0
c-140 0 -144 -1 -167 -25 l-24 -25 -26 25 c-24 23 -81 36 -79 18z"/>
<path d="M1260 592 l0 -408 33 -32 c33 -32 33 -32 138 -32 102 0 106 1 132 28
l27 28 0 217 0 216 -92 3 -93 3 0 170 c0 169 0 170 23 173 22 3 22 3 22 -137
l0 -141 59 0 58 0 67 153 c36 83 66 155 66 160 0 14 -42 7 -67 -13 -14 -11
-31 -20 -38 -20 -6 0 -20 9 -30 20 -16 18 -31 20 -162 20 l-143 0 0 -408z
m188 -231 l2 -202 -22 3 c-23 3 -23 4 -26 192 -2 133 1 193 9 203 29 34 34 5
37 -196z"/>
<path d="M1687 846 c-37 -85 -67 -157 -67 -160 0 -3 47 -6 105 -6 l105 0 0
-261 0 -260 -22 3 c-23 3 -23 3 -26 226 l-2 222 -70 0 -70 0 0 -213 0 -213 33
-32 c33 -32 33 -32 138 -32 l105 0 32 33 32 33 0 407 0 407 -75 0 -75 0 0
-136 c0 -135 0 -135 -22 -132 -22 3 -23 7 -26 136 -2 100 -6 132 -15 132 -8 0
-43 -69 -80 -154z"/>
<path d="M2041 977 c-20 -23 -21 -32 -19 -158 l3 -134 73 -3 72 -3 0 141 c0
141 0 141 23 138 l22 -3 0 -395 0 -395 -22 -3 -23 -3 0 225 0 226 -75 0 -75 0
0 -213 0 -213 33 -32 c33 -32 33 -32 138 -32 l105 0 32 33 32 33 0 407 0 407
-148 0 c-143 0 -149 -1 -171 -23z"/>
<path d="M2410 980 c0 -17 7 -20 45 -20 l45 0 0 -175 0 -175 -45 0 -45 0 0
-217 0 -217 27 -28 c26 -27 30 -28 133 -28 l106 0 32 33 32 33 0 212 0 212
-50 0 -50 0 0 168 0 168 -28 27 c-26 25 -34 27 -115 27 -80 0 -87 -2 -87 -20z
m179 -424 c8 -9 11 -72 9 -202 -3 -187 -3 -189 -25 -192 l-23 -3 0 199 c0 109
3 202 7 205 10 10 19 8 32 -7z"/>
<path d="M2812 977 c-20 -22 -22 -33 -22 -160 l0 -137 70 0 70 0 0 140 0 140
25 0 25 0 0 -400 0 -400 -25 0 -25 0 0 225 0 225 -70 0 -70 0 0 -217 0 -217
27 -28 c26 -27 29 -28 138 -28 109 0 112 1 138 28 l27 28 0 412 0 412 -143 0
c-137 0 -144 -1 -165 -23z"/>
<path d="M3197 972 l-27 -28 0 -235 0 -234 77 -177 77 -178 78 0 c76 0 77 0
69 23 -5 12 -43 100 -85 195 l-76 173 0 225 0 224 25 0 25 0 0 -190 c0 -144 4
-199 14 -225 15 -34 17 -35 70 -35 l56 0 0 217 0 217 -27 28 c-26 27 -29 28
-138 28 -109 0 -112 -1 -138 -28z"/>
<path d="M3572 977 c-22 -23 -22 -26 -22 -440 l0 -417 70 0 70 0 0 420 0 420
25 0 25 0 0 -420 0 -420 43 0 c34 0 49 6 70 28 l27 28 0 412 0 412 -143 0
c-137 0 -144 -1 -165 -23z"/>
</g>
</svg>
